<?xml version="1.0" standalone="no"?>
<!DOCTYPE svg PUBLIC "-//W3C//DTD SVG 1.1//EN" "http://www.w3.org/Graphics/SVG/1.1/DTD/svg11.dtd" >
<svg xmlns="http://www.w3.org/2000/svg">
<metadata></metadata>
<defs>
<font id="lcd2" horiz-adv-x="1013" >
<font-face units-per-em="2048" ascent="1638" descent="-410" />
<missing-glyph horiz-adv-x="593" />
<glyph horiz-adv-x="0" />
<glyph horiz-adv-x="2048" />
<glyph unicode="&#xd;" horiz-adv-x="593" />
<glyph unicode=" "  horiz-adv-x="593" />
<glyph unicode="&#x09;" horiz-adv-x="593" />
<glyph unicode="&#xa0;" horiz-adv-x="593" />
<glyph unicode="!" horiz-adv-x="348" d="M88 0v317h176v-317h-176zM88 567v731l176 177v-1041z" />
<glyph unicode="&#x22;" horiz-adv-x="585" d="M102 1014l41 461h129l-41 -461h-129zM315 1014l41 461h129l-41 -461h-129z" />
<glyph unicode="#" horiz-adv-x="1193" d="M102 469l21 92h235l74 352h-235l18 93h238l90 436h92l-90 -436h221l90 436h92l-90 -436h236l-21 -93h-235l-74 -352h235l-20 -92h-236l-92 -436h-92l92 436h-221l-92 -436h-92l92 436h-236zM451 561h221l73 352h-221z" />
<glyph unicode="$" d="M88 760v508l88 88l88 -88v-406zM102 0l193 176h432l88 -84l-86 -92h-106l-111 96l-100 -96h-310zM129 737l166 97h428l166 -97l-166 -82h-428zM213 1389l84 86h115l100 -101l104 101h228l-70 -177h-477zM424 -23l88 72l90 -74v-147l-88 -74l-90 84v139zM426 1507v135 l86 89l90 -82v-142l-92 -84zM752 207v420l176 88v-508l-88 -88z" />
<glyph unicode="%" horiz-adv-x="1859" d="M45 922v348l92 86l90 -88v-346l-90 -88zM164 803l92 94h350l88 -94l-88 -80h-352zM166 1382l88 93h354l86 -93l-88 -84h-352zM381 0l399 655h205l-397 -655h-207zM637 922v348l86 88l90 -86v-348l-90 -90zM911 877l363 598h207l-471 -777zM1049 213v346l92 88l90 -88 v-348l-90 -88zM1167 92l90 84h351l90 -84l-88 -92h-355zM1167 672l90 84h353l88 -82l-90 -96h-351zM1640 213v346l84 90l93 -88v-348l-91 -88z" />
<glyph unicode="&#x26;" horiz-adv-x="1175" d="M88 207v508l176 -88v-420l-88 -88zM88 760v508l88 88l88 -88v-406zM205 90l90 86h428l90 -86l-90 -90h-428zM205 1384l90 91h428l90 -91l-90 -86h-428zM399 739l150 95h178l90 -97l-90 -82h-152zM756 207v418l88 82l90 -84v-418l-92 -84zM758 862v187l88 92l90 -92v-189 l-92 -96zM874 735l95 99h84l170 -97l-148 -82h-110z" />
<glyph unicode="'" horiz-adv-x="372" d="M102 1014l41 461h129l-41 -461h-129z" />
<glyph unicode="(" horiz-adv-x="548" d="M88 207v508l176 -88v-420l-88 -88zM88 760v508l88 88l88 -88v-406zM205 90l90 86h96l131 -176h-227zM205 1384l90 91h227l-131 -177h-96z" />
<glyph unicode=")" horiz-adv-x="548" d="M29 0l133 176h96l90 -86l-90 -90h-229zM29 1475h229l90 -91l-90 -86h-96zM287 207v405l176 103v-508l-88 -88zM287 848v420l88 88l88 -88v-508z" />
<glyph unicode="*" horiz-adv-x="819" d="M45 895l12 113l250 145l80 -59v-99l-240 -143zM324 1198v266l90 68l90 -70v-268l-90 -66zM434 993v105l84 49l246 -135l14 -107l-90 -53z" />
<glyph unicode="+" horiz-adv-x="1015" d="M86 649l82 176h221l92 -86l-94 -90h-301zM416 858v219l178 80v-301l-86 -90zM418 319v299l90 91l86 -91v-219zM545 737l86 88h301l-80 -176h-227z" />
<glyph unicode="," horiz-adv-x="292" d="M-29 -193l97 510h182l-96 -510h-183z" />
<glyph unicode="-" horiz-adv-x="700" d="M45 442l119 176h493l-118 -176h-494z" />
<glyph unicode="." horiz-adv-x="264" d="M45 0v176h176v-176h-176z" />
<glyph unicode="/" horiz-adv-x="1187" d="M45 0l397 655h205l-395 -655h-207zM573 877l363 598h209l-471 -777z" />
<glyph unicode="0" d="M86 27v686l176 -103v-405zM86 758l176 102v406l-176 178v-686zM117 -2h782l-178 176h-428zM117 1473h782l-178 -177h-428zM752 205l176 -178v686l-176 -103v-405zM752 860v406l176 178v-686z" />
<glyph unicode="1" d="M752 205l176 -178v686l-176 -103v-405zM752 860v406l176 178v-686zM889 737z" />
<glyph unicode="2" d="M86 27v686l176 -103v-405zM117 -2h782l-178 176h-428zM117 1473h782l-178 -177h-428zM129 729l166 96h428l166 -88l-166 -90h-428zM752 860v406l176 178v-686z" />
<glyph unicode="3" d="M117 -2h782l-178 176h-428zM117 1473h782l-178 -177h-428zM129 729l166 96h428l166 -88l-166 -90h-428zM752 205l176 -178v686l-176 -103v-405zM752 860v406l176 178v-686z" />
<glyph unicode="4" d="M86 758l176 102v406l-176 178v-686zM129 729l166 96h428l166 -88l-166 -90h-428zM752 205l176 -178v686l-176 -103v-405zM752 860v406l176 178v-686z" />
<glyph unicode="5" d="M86 758l176 102v406l-176 178v-686zM117 -2h782l-178 176h-428zM117 1473h782l-178 -177h-428zM129 729l166 96h428l166 -88l-166 -90h-428zM752 205l176 -178v686l-176 -103v-405z" />
<glyph unicode="6" d="M86 27v686l176 -103v-405zM86 758l176 102v406l-176 178v-686zM117 -2h782l-178 176h-428zM117 1473h782l-178 -177h-428zM129 729l166 96h428l166 -88l-166 -90h-428zM752 205l176 -178v686l-176 -103v-405z" />
<glyph unicode="7" d="M117 1473h782l-178 -177h-428zM752 205l176 -178v686l-176 -103v-405zM752 860v406l176 178v-686z" />
<glyph unicode="8" d="M86 27v686l176 -103v-405zM86 758l176 102v406l-176 178v-686zM117 -2h782l-178 176h-428zM117 1473h782l-178 -177h-428zM129 729l166 96h428l166 -88l-166 -90h-428zM752 205l176 -178v686l-176 -103v-405zM752 860v406l176 178v-686z" />
<glyph unicode="9" d="M86 758l176 102v406l-176 178v-686zM117 -2h782l-178 176h-428zM117 1473h782l-178 -177h-428zM129 729l166 96h428l166 -88l-166 -90h-428zM752 205l176 -178v686l-176 -103v-405zM752 860v406l176 178v-686z" />
<glyph unicode=":" horiz-adv-x="278" d="M59 317v177h177v-177h-177zM59 973v176h177v-176h-177z" />
<glyph unicode=";" horiz-adv-x="292" d="M-29 -193l97 510h182l-96 -510h-183zM66 655v303h176v-303h-176z" />
<glyph unicode="&#x3c;" horiz-adv-x="1064" d="M102 737l863 488v-146l-621 -342l621 -342v-145z" />
<glyph unicode="=" d="M88 510l86 178h754l-86 -178h-754zM88 793l86 176h754l-86 -176h-754z" />
<glyph unicode="&#x3e;" horiz-adv-x="1064" d="M102 250v145l621 342l-621 342v146l863 -488z" />
<glyph unicode="?" horiz-adv-x="856" d="M45 1384l90 91h428l90 -91l-90 -86h-428zM223 0v317h178v-317h-178zM225 416v389l176 -170v-219h-176zM260 834h303l166 -93l-166 -86h-125zM592 862v406l88 88l90 -88v-508z" />
<glyph unicode="@" horiz-adv-x="1583" d="M119 735.5q0 325.5 240.5 545.5t511 220t433 -175t162.5 -445q0 -217 -107 -401.5t-259 -184.5q-80 0 -131 51t-43 125q-23 -74 -84.5 -113t-134.5 -39q-104 0 -174 97.5t-70 295t121 344t245 146.5q63 0 113.5 -32.5t69.5 -90.5l20 121h98l-92 -444q-34 -153 -34 -205.5 t28.5 -112.5t83.5 -59q12 0 29 6q80 29 145 141q86 145 86 346q0 242 -146.5 388.5t-381 146.5t-424 -193.5t-189 -464t180.5 -479.5t413 -209q152 0 303.5 78t243.5 201l45 -64q-242 -303 -592 -303q-303 0 -506.5 218.5t-203.5 544zM578 664.5q0 -154.5 32.5 -210 t96.5 -55.5q66 -6 110.5 35t93.5 172q8 31 27 127t26 126.5t8 57.5t3 44q0 165 -146 163q-80 -6 -165.5 -155.5t-85.5 -304z" />
<glyph unicode="A" d="M88 0v715l176 -88v-451zM88 760v686l176 -178v-406zM117 1475h782l-176 -177h-428zM129 737l166 97h428l166 -97l-166 -82h-428zM752 176v451l176 88v-715zM752 862v406l176 178v-686z" />
<glyph unicode="B" d="M88 29v686l176 -88v-420zM88 760v686l176 -178v-406zM117 0l178 176h428l90 -86l-90 -90h-606zM117 1475h606l90 -91l-90 -86h-428zM129 737l166 97h428l166 -97l-166 -82h-428zM752 207v420l176 88v-508l-88 -88zM752 862v406l88 88l88 -88v-508z" />
<glyph unicode="C" horiz-adv-x="911" d="M88 207v508l176 -103v-405l-88 -88zM88 760v508l88 88l88 -88v-420zM205 90l90 86h428l176 -176h-604zM205 1384l90 91h604l-176 -177h-428z" />
<glyph unicode="D" d="M88 29v686l176 -88v-420zM88 760v686l176 -178v-406zM117 0l178 176h428l90 -86l-90 -90h-606zM117 1475h606l90 -91l-90 -86h-428zM752 207v420l176 88v-508l-88 -88zM752 862v406l88 88l88 -88v-508z" />
<glyph unicode="E" horiz-adv-x="911" d="M88 29v686l176 -88v-420zM88 760v686l176 -178v-406zM117 0l178 176h428l176 -176h-782zM117 1475h782l-176 -177h-428zM129 737l166 97h428l166 -97l-166 -82h-428z" />
<glyph unicode="F" horiz-adv-x="897" d="M88 0v715l176 -88v-451zM88 760v686l176 -178v-406zM117 1475h782l-176 -177h-428zM129 737l166 97h428l166 -97l-166 -82h-428z" />
<glyph unicode="G" d="M88 207v508l176 -88v-420l-88 -88zM88 760v508l88 88l88 -88v-406zM205 90l90 86h428l90 -86l-90 -90h-428zM205 1384l90 91h596l-168 -177h-428zM393 737l166 97h164l166 -97l-166 -82h-164zM752 207v420l176 88v-508l-88 -88z" />
<glyph unicode="H" d="M88 0v715l176 -88v-451zM88 760v715l176 -177v-436zM129 737l166 97h428l166 -97l-166 -82h-428zM752 176v451l176 88v-715zM752 862v436l176 177v-715z" />
<glyph unicode="I" horiz-adv-x="348" d="M88 176v451l176 88v-715zM88 862v436l176 177v-715z" />
<glyph unicode="J" d="M88 29v686l176 -88v-420zM117 0l178 176h428l176 -176h-782zM752 207v420l176 88v-686zM752 862v436l176 177v-715z" />
<glyph unicode="K" d="M88 0v715l176 -88v-451zM88 760v715l176 -177v-436zM129 737l166 97h428l166 -97l-166 -82h-428zM301 868v127l498 480h129v-121l-502 -486h-125zM752 176v451l176 88v-715z" />
<glyph unicode="L" horiz-adv-x="983" d="M88 29v686l176 -88v-420zM88 760v715l176 -177v-436zM117 0l178 176h428l176 -176h-782zM752 207v420l176 88v-686z" />
<glyph unicode="M" horiz-adv-x="1679" d="M88 0v715l176 -88v-451zM88 760v686l176 -178v-406zM117 1475h1446l-179 -177h-428l-116 115l-117 -115h-432zM752 147v488l88 80l88 -80v-488l-88 -147zM752 815v457l88 90l88 -94v-453l-88 -67zM1415 176v451l176 88v-715zM1415 862v406l176 176v-684z" />
<glyph unicode="N" d="M88 0v715l176 -88v-451zM88 760v686l176 -178v-406zM117 1475h782l-176 -177h-428zM752 176v451l176 88v-715zM752 862v406l176 178v-686z" />
<glyph unicode="O" d="M88 207v508l176 -88v-420l-88 -88zM88 760v508l88 88l88 -88v-406zM205 90l90 86h428l90 -86l-90 -90h-428zM205 1384l90 91h428l90 -91l-90 -86h-428zM752 207v420l176 88v-508l-88 -88zM752 862v406l88 88l88 -88v-508z" />
<glyph unicode="P" d="M88 0v715l176 -88v-451zM88 760v686l176 -178v-406zM117 1475h606l90 -91l-90 -86h-428zM129 737l166 97h428l166 -97l-166 -82h-428zM752 862v406l88 88l88 -88v-508z" />
<glyph unicode="Q" horiz-adv-x="1017" d="M88 207v508l176 -88v-420l-88 -88zM88 760v508l88 88l88 -88v-406zM205 1384l90 91h428l90 -91l-90 -86h-428zM207 96l88 80h125l182 -176h-307zM475 176h244l213 -201v-237zM752 207v420l176 88v-508l-88 -88zM752 862v406l88 88l88 -88v-508z" />
<glyph unicode="R" horiz-adv-x="1017" d="M88 29v686l176 -88v-420zM88 760v686l176 -178v-406zM117 1475h606l90 -91l-90 -86h-428zM129 737l166 97h428l166 -97l-166 -82h-428zM537 627h198l322 -629l-307 207zM752 862v406l88 88l88 -88v-508z" />
<glyph unicode="S" d="M88 0l193 176h442l90 -86l-90 -90h-635zM88 760v508l88 88l88 -88v-406zM129 737l166 97h428l166 -97l-166 -82h-428zM205 1384l90 91h633l-191 -177h-442zM752 207v420l176 88v-508l-88 -88z" />
<glyph unicode="T" horiz-adv-x="839" d="M-14 1475h870l-141 -177h-191l-100 103l-107 -103h-192zM330 96v529l92 94l88 -94v-529l-90 -96zM332 827v435l90 96l88 -96v-435l-88 -86z" />
<glyph unicode="U" d="M88 207v508l176 -88v-420l-88 -88zM88 760v715l176 -170v-443zM205 90l90 86h428l90 -86l-90 -90h-428zM752 207v420l176 88v-508l-88 -88zM752 862v443l176 170v-715z" />
<glyph unicode="V" horiz-adv-x="1017" d="M88 735l231 -61l168 -305v-371zM88 760v686l176 -178v-406zM532 0v369l168 305l232 59zM752 862v406l176 178v-686z" />
<glyph unicode="W" horiz-adv-x="1679" d="M88 203v518l176 -111v-407l-88 -88zM88 760v715l178 -177v-450zM207 84l88 92h428l117 -119l118 119h431l90 -88l-88 -88h-1098zM752 207v452l88 68l90 -68v-456l-88 -90zM752 840v487l88 148l90 -148v-487l-90 -80zM1415 848v450l178 177v-715zM1417 203v409l176 109 v-518l-84 -86z" />
<glyph unicode="X" horiz-adv-x="892" d="M45 0v150l291 567h92v-209l-258 -508h-125zM45 1335v140h127l256 -512v-205h-92zM469 508v209h92l289 -572v-145h-127zM469 758v205l258 512h123v-146l-289 -571h-92z" />
<glyph unicode="Y" d="M88 760v715l176 -177v-436zM129 737l166 97h428l166 -97l-166 -82h-428zM422 102v514h180v-514l-94 -102zM752 862v436l176 177v-715z" />
<glyph unicode="Z" horiz-adv-x="864" d="M14 0l301 676l209 41l-317 -717h-193zM47 1475h574l-76 -177h-322zM242 0l86 176h311l178 -176h-575zM422 934l237 541h193l-315 -727z" />
<glyph unicode="[" horiz-adv-x="542" d="M88 29v686l176 -88v-420zM88 760v686l176 -178v-406zM117 0l178 176h59l176 -176h-413zM117 1475h413l-176 -177h-59z" />
<glyph unicode="\" horiz-adv-x="589" d="M102 1475h129l258 -1475h-129z" />
<glyph unicode="]" horiz-adv-x="542" d="M14 0l176 176h60l178 -176h-414zM14 1475h414l-178 -177h-60zM281 207v405l176 103v-686zM281 848v420l176 178v-686z" />
<glyph unicode="^" horiz-adv-x="1177" d="M102 356l488 863l489 -863h-147l-342 621l-340 -621h-148z" />
<glyph unicode="_" horiz-adv-x="940" d="M102 0h738v-55h-738v55z" />
<glyph unicode="`" horiz-adv-x="323" d="M0 1036h193l133 -295h-193z" />
<glyph unicode="a" d="M88 0v715l176 -88v-451zM88 760v686l176 -178v-406zM117 1475h782l-176 -177h-428zM129 737l166 97h428l166 -97l-166 -82h-428zM752 176v451l176 88v-715zM752 862v406l176 178v-686z" />
<glyph unicode="b" d="M88 29v686l176 -88v-420zM88 760v686l176 -178v-406zM117 0l178 176h428l90 -86l-90 -90h-606zM117 1475h606l90 -91l-90 -86h-428zM129 737l166 97h428l166 -97l-166 -82h-428zM752 207v420l176 88v-508l-88 -88zM752 862v406l88 88l88 -88v-508z" />
<glyph unicode="c" horiz-adv-x="911" d="M88 207v508l176 -103v-405l-88 -88zM88 760v508l88 88l88 -88v-420zM205 90l90 86h428l176 -176h-604zM205 1384l90 91h604l-176 -177h-428z" />
<glyph unicode="d" d="M88 29v686l176 -88v-420zM88 760v686l176 -178v-406zM117 0l178 176h428l90 -86l-90 -90h-606zM117 1475h606l90 -91l-90 -86h-428zM752 207v420l176 88v-508l-88 -88zM752 862v406l88 88l88 -88v-508z" />
<glyph unicode="e" horiz-adv-x="911" d="M88 29v686l176 -88v-420zM88 760v686l176 -178v-406zM117 0l178 176h428l176 -176h-782zM117 1475h782l-176 -177h-428zM129 737l166 97h428l166 -97l-166 -82h-428z" />
<glyph unicode="f" horiz-adv-x="897" d="M88 0v715l176 -88v-451zM88 760v686l176 -178v-406zM117 1475h782l-176 -177h-428zM129 737l166 97h428l166 -97l-166 -82h-428z" />
<glyph unicode="g" d="M88 207v508l176 -88v-420l-88 -88zM88 760v508l88 88l88 -88v-406zM205 90l90 86h428l90 -86l-90 -90h-428zM205 1384l90 91h596l-168 -177h-428zM393 737l166 97h164l166 -97l-166 -82h-164zM752 207v420l176 88v-508l-88 -88z" />
<glyph unicode="h" d="M88 0v715l176 -88v-451zM88 760v715l176 -177v-436zM129 737l166 97h428l166 -97l-166 -82h-428zM752 176v451l176 88v-715zM752 862v436l176 177v-715z" />
<glyph unicode="i" horiz-adv-x="348" d="M88 176v451l176 88v-715zM88 862v436l176 177v-715z" />
<glyph unicode="j" d="M88 29v686l176 -88v-420zM117 0l178 176h428l176 -176h-782zM752 207v420l176 88v-686zM752 862v436l176 177v-715z" />
<glyph unicode="k" d="M88 0v715l176 -88v-451zM88 760v715l176 -177v-436zM129 737l166 97h428l166 -97l-166 -82h-428zM301 868v127l498 480h129v-121l-502 -486h-125zM752 176v451l176 88v-715z" />
<glyph unicode="l" horiz-adv-x="983" d="M88 29v686l176 -88v-420zM88 760v715l176 -177v-436zM117 0l178 176h428l176 -176h-782zM752 207v420l176 88v-686z" />
<glyph unicode="m" horiz-adv-x="1679" d="M88 0v715l176 -88v-451zM88 760v686l176 -178v-406zM117 1475h1446l-179 -177h-428l-116 115l-117 -115h-432zM752 147v488l88 80l88 -80v-488l-88 -147zM752 815v457l88 90l88 -94v-453l-88 -67zM1415 176v451l176 88v-715zM1415 862v406l176 176v-684z" />
<glyph unicode="n" d="M88 0v715l176 -88v-451zM88 760v686l176 -178v-406zM117 1475h782l-176 -177h-428zM752 176v451l176 88v-715zM752 862v406l176 178v-686z" />
<glyph unicode="o" d="M88 207v508l176 -88v-420l-88 -88zM88 760v508l88 88l88 -88v-406zM205 90l90 86h428l90 -86l-90 -90h-428zM205 1384l90 91h428l90 -91l-90 -86h-428zM752 207v420l176 88v-508l-88 -88zM752 862v406l88 88l88 -88v-508z" />
<glyph unicode="p" d="M88 0v715l176 -88v-451zM88 760v686l176 -178v-406zM117 1475h606l90 -91l-90 -86h-428zM129 737l166 97h428l166 -97l-166 -82h-428zM752 862v406l88 88l88 -88v-508z" />
<glyph unicode="q" horiz-adv-x="1017" d="M88 207v508l176 -88v-420l-88 -88zM88 760v508l88 88l88 -88v-406zM205 1384l90 91h428l90 -91l-90 -86h-428zM207 96l88 80h125l182 -176h-307zM475 176h244l213 -201v-237zM752 207v420l176 88v-508l-88 -88zM752 862v406l88 88l88 -88v-508z" />
<glyph unicode="r" horiz-adv-x="1017" d="M88 29v686l176 -88v-420zM88 760v686l176 -178v-406zM117 1475h606l90 -91l-90 -86h-428zM129 737l166 97h428l166 -97l-166 -82h-428zM537 627h198l322 -629l-307 207zM752 862v406l88 88l88 -88v-508z" />
<glyph unicode="s" d="M88 0l193 176h442l90 -86l-90 -90h-635zM88 760v508l88 88l88 -88v-406zM129 737l166 97h428l166 -97l-166 -82h-428zM205 1384l90 91h633l-191 -177h-442zM752 207v420l176 88v-508l-88 -88z" />
<glyph unicode="t" horiz-adv-x="839" d="M-14 1475h870l-141 -177h-191l-100 103l-107 -103h-192zM330 96v529l92 94l88 -94v-529l-90 -96zM332 827v435l90 96l88 -96v-435l-88 -86z" />
<glyph unicode="u" d="M88 207v508l176 -88v-420l-88 -88zM88 760v715l176 -170v-443zM205 90l90 86h428l90 -86l-90 -90h-428zM752 207v420l176 88v-508l-88 -88zM752 862v443l176 170v-715z" />
<glyph unicode="v" horiz-adv-x="1017" d="M88 735l231 -61l168 -305v-371zM88 760v686l176 -178v-406zM532 0v369l168 305l232 59zM752 862v406l176 178v-686z" />
<glyph unicode="w" horiz-adv-x="1679" d="M88 203v518l176 -111v-407l-88 -88zM88 760v715l178 -177v-450zM207 84l88 92h428l117 -119l118 119h431l90 -88l-88 -88h-1098zM752 207v452l88 68l90 -68v-456l-88 -90zM752 840v487l88 148l90 -148v-487l-90 -80zM1415 848v450l178 177v-715zM1417 203v409l176 109 v-518l-84 -86z" />
<glyph unicode="x" horiz-adv-x="892" d="M45 0v150l291 567h92v-209l-258 -508h-125zM45 1335v140h127l256 -512v-205h-92zM469 508v209h92l289 -572v-145h-127zM469 758v205l258 512h123v-146l-289 -571h-92z" />
<glyph unicode="y" d="M88 760v715l176 -177v-436zM129 737l166 97h428l166 -97l-166 -82h-428zM422 102v514h180v-514l-94 -102zM752 862v436l176 177v-715z" />
<glyph unicode="z" horiz-adv-x="864" d="M14 0l301 676l209 41l-317 -717h-193zM47 1475h574l-76 -177h-322zM242 0l86 176h311l178 -176h-575zM422 934l237 541h193l-315 -727z" />
<glyph unicode="{" horiz-adv-x="620" d="M102 737q55 0 91 42t36 104v686q0 135 160 135h131v-76h-22q-72 0 -96.5 -24.5t-24.5 -100.5v-606q0 -63 -39 -108.5t-98 -51.5q59 -6 98 -51t39 -108v-607q0 -76 22.5 -100.5t98.5 -24.5h22v-75h-131q-160 0 -160 135v686q0 98 -79 133q-12 7 -48 12z" />
<glyph unicode="|" horiz-adv-x="331" d="M102 0v1475h129v-1475h-129z" />
<glyph unicode="}" horiz-adv-x="620" d="M102 -154h23q74 0 97.5 24t23.5 101v607q0 63 39 108t100 51q-31 4 -53 15q-86 43 -86 145v606q0 76 -22.5 100.5t-98.5 24.5h-23v76h134q157 0 157 -135v-686q0 -96 80 -133q14 -8 47 -13q-33 -4 -47 -12q-80 -37 -80 -133v-686q0 -135 -157 -135h-134v75z" />
<glyph unicode="~" horiz-adv-x="937" d="M102 598v35q0 109 49.5 166t122 57t134.5 -27l182 -75q88 -26 113 5t32 97h103v-33q0 -109 -49.5 -166t-122 -57t-134.5 27l-157 65l-27 8q-41 12 -65 13q-67 0 -78 -115h-103z" />
<glyph unicode="&#xa1;" horiz-adv-x="348" d="M88 0v1040l176 -133v-731zM88 1157v318h176v-318h-176z" />
<glyph unicode="&#xa2;" horiz-adv-x="950" d="M88 207v508l176 -103v-405l-88 -88zM88 760v508l88 88l88 -88v-420zM209 86l88 90h432l176 -176h-305l-104 117l-105 -117h-96zM213 1382l86 93h100l101 -109l108 109h299l-176 -177h-434zM406 -29l90 88l90 -90v-141l-88 -117l-92 113v147zM414 1507v148l86 96l92 -102 v-142l-94 -96z" />
<glyph unicode="&#xa3;" horiz-adv-x="1093" d="M-45 735l92 99h154l100 -101l-96 -78h-162zM236 61v555l94 82l86 -82v-407zM240 850v418l90 92l88 -92v-422l-92 -82zM242 0l202 176h428l179 -176h-809zM356 733l95 101h243l88 -101l-88 -78h-248zM356 1384l88 91h607l-179 -177h-428z" />
<glyph unicode="&#xa4;" horiz-adv-x="931" d="M102 438l131 129q-59 78 -59 172t57 170l-127 123l27 35l31 31l131 -127q78 57 175 57t173 -57l127 129q32 -25 63 -66l-129 -123q55 -78 55.5 -172t-57.5 -174l129 -129l-14 -16l-49 -45l-127 129q-76 -57 -173 -57.5t-171 59.5l-133 -129q-22 17 -60 61zM268 737 q0 -80 58.5 -138t140.5 -58t139 58t58 138q0 80 -58.5 138.5t-137.5 58.5t-139.5 -58.5t-60.5 -138.5z" />
<glyph unicode="&#xa5;" horiz-adv-x="1040" d="M45 520l49 66h287v-123h-293zM47 317l39 66h295v-121h-297zM92 760v715l176 -177v-436zM131 737l166 97h428l166 -97l-166 -82h-428zM426 102v514h180v-514l-94 -102zM666 264v123h290l41 -63l-43 -60h-288zM666 465v121h297l34 -68l-41 -53h-290zM756 862v436l176 177 v-715z" />
<glyph unicode="&#xa6;" horiz-adv-x="348" d="M88 176v451l176 88v-715zM88 862v436l176 177v-715z" />
<glyph unicode="&#xa7;" horiz-adv-x="1001" d="M88 57l92 86l90 -88v-305l-90 -88l-92 88v307zM88 307v406l92 88l90 -88v-408l-90 -88zM207 176l106 105h379l105 -105l-74 -70h-442zM207 -371l92 97h408l90 -97l-88 -78h-412zM209 838l74 82h442l72 -82l-101 -97h-383zM209 1382l88 93h412l88 -93l-90 -84h-410z M739 307v406l84 88l92 -86v-408l-90 -88zM739 961v309l84 88l92 -86v-311l-90 -89z" />
<glyph unicode="&#xa8;" horiz-adv-x="501" d="M0 1559v266h176v-266h-176zM328 1559v266h176v-266h-176z" />
<glyph unicode="&#xa9;" horiz-adv-x="1763" d="M111 743q0 315 223 538.5t538 223.5t538.5 -223.5t223.5 -538.5t-223 -538t-538.5 -223t-538.5 223t-223 538zM197 743q0 -281 197.5 -478t478 -197t478 197t197.5 478t-197.5 478.5t-478.5 197.5t-478 -197.5t-197 -478.5zM569 373v325l111 -65v-260l-55 -58zM569 727 v324l56 57l55 -57v-269zM643 297l57 57h275l110 -114h-385zM643 1126l57 58h385l-110 -113h-275z" />
<glyph unicode="&#xaa;" horiz-adv-x="905" d="M102 1141q0 35 7 71q27 131 115.5 208t205.5 77q29 0 59 -6q121 -27 181 -131l10 -17l6 -14v146h119v-668h-119v156q-29 -82 -102.5 -127t-146 -45t-134.5 24q-194 85 -201 326zM125 594v111h680v-111h-680zM225 1143l6 -47q18 -102 99 -158q59 -41 127 -41 q123 0 199 119q32 51 32 127q0 25 -6 53q-25 125 -131 174q-43 20 -110.5 20.5t-131 -54t-80.5 -148.5z" />
<glyph unicode="&#xab;" horiz-adv-x="813" d="M45 453h191l206 -453h-192zM45 502l207 456h194l-210 -456h-191zM371 453h190l207 -453h-193zM371 502l207 456h192l-209 -456h-190z" />
<glyph unicode="&#xac;" horiz-adv-x="2377" d="M55 141q0 47 25.5 124t46.5 108l66 86l20 28q-84 0 -98 88q10 -2 18 -2h10q104 0 213 109q4 0 9 2q8 -12 8 -33q0 -76 -45 -107.5t-86 -58.5q-2 -6 -51.5 -78.5t-49.5 -111.5t14.5 -82t37.5 -43q33 0 111 54t142 100q6 10 39 92t51 102q48 51 66 51q29 0 29 -33 q0 -58 -109 -128q-12 -23 -23.5 -71t-11.5 -74.5t105 -151.5q39 186 257 381.5t385 229.5t245.5 45t175 11t170 -6t191.5 -26.5t196 -116.5q104 -131 104 -381q0 -275 -305 -275q-41 0 -90 13.5t-49 44.5q0 39 41 39t56 -29.5t65 -44.5q227 0 227 242q4 37 4 61 q0 145 -61 250q-80 135 -224 153q-301 39 -365 39t-145 -13t-151 -23q-209 -35 -445.5 -247t-257.5 -388q46 -67 46 -124.5t-23 -58.5q-27 0 -43 48.5t-16 84.5v11q-72 59 -84 71q-59 57 -66 99l-2 71q0 16 2 25q-76 -66 -173.5 -130.5t-149.5 -64.5t-52 39zM714 52.5 q5 23.5 43.5 23.5t60.5 -22t16 -40q-4 -27 -47 -26.5t-60.5 21t-12.5 44zM838 121q0 51 35.5 91t89.5 54l2 -10q-86 -29 -84 -90q0 -76 94 -109q68 -23 166 -22q143 0 262 86q55 41 55 86t-32.5 56t-84.5 11l-137 -8q-76 0 -126 32t-50 105q0 100 91 159t202 59 q39 0 55.5 -3.5t36.5 -23.5q20 8 29 -2q10 -20 37 -60q-4 -14 -29 -36.5t-31 -32.5q-4 -20 -19.5 -9t-27.5 21q-32 6 -32.5 19.5t17.5 38t17.5 39.5t-20 24.5t-39.5 9.5q-80 0 -155 -41t-75 -115.5t119 -74.5l117 6q84 0 123 -12q67 -23 67 -84q0 -106 -131 -209 q-137 -104 -315 -105q-88 0 -158 35t-69 115zM1417 47q8 31 45 31q14 0 23 -2q57 -17 51 -56q-11 -38 -72 -24q-55 20 -47 51zM1602 83.5q0 40.5 53 86.5q27 -35 44.5 -50.5t47.5 -15.5q82 0 147 140q55 117 55.5 190.5t-27.5 89t-85 15.5q-88 0 -96 -54.5t-19 -60.5l-14 35 q2 8 2 31v34q0 53 21.5 82t104.5 29t122 -8q80 -17 80 -66q0 -61 -55.5 -190.5t-104.5 -215.5t-66 -106q-45 -57 -89 -57t-82.5 25.5t-38.5 66z" />
<glyph unicode="&#xad;" horiz-adv-x="610" d="M0 451l119 176h493l-118 -176h-494z" />
<glyph unicode="&#xae;" horiz-adv-x="1763" d="M111 743q0 315 223 538.5t538 223.5t538.5 -223.5t223.5 -538.5t-223 -538t-538.5 -223t-538.5 223t-223 538zM197 743q0 -281 197.5 -478t478 -197t478 197t197.5 478t-197.5 478.5t-478.5 197.5t-478 -197.5t-197 -478.5zM594 283v440l113 -57v-269zM594 752v438 l113 -115v-258zM612 1208h387l60 -57l-60 -55h-272zM621 737l106 62h272l107 -62l-107 -53h-272zM881 666h127l206 -402l-196 131zM1018 817v258l57 58l55 -58v-323z" />
<glyph unicode="&#xaf;" horiz-adv-x="610" d="M12 1626l119 176h494l-119 -176h-494z" />
<glyph unicode="&#xb0;" horiz-adv-x="747" d="M102 1231q0 113 80 192.5t194 79.5t192.5 -78.5t78.5 -193.5t-79 -194t-192.5 -79t-193.5 80t-80 193zM190 1231q0 -78 53.5 -131t131.5 -53t131 53t53 131t-53 131t-131 53t-131.5 -53t-53.5 -131z" />
<glyph unicode="&#xb1;" horiz-adv-x="1122" d="M90 39v139h946v-139h-946zM90 539v139h404v250h139v-250h403v-139h-403v-250h-139v250h-404z" />
<glyph unicode="&#xb2;" horiz-adv-x="505" d="M45 1149v254l88 -45v-209l-45 -45zM45 1694l102 88h215l46 -45l-46 -43h-317zM66 1413l81 49h215l82 -49l-82 -41h-215zM102 1090l45 43h234l84 -89h-318zM377 1477v202l43 43l45 -43v-254z" />
<glyph unicode="&#xb3;" horiz-adv-x="505" d="M51 1044l84 89h215l45 -43l-45 -46h-299zM51 1782h299l45 -45l-45 -43h-215zM53 1413l82 49h215l82 -49l-82 -41h-215zM365 1149v209l88 45v-254l-45 -45zM365 1477v202l43 43l45 -43v-254z" />
<glyph unicode="&#xb4;" horiz-adv-x="323" d="M0 743l133 295h193l-136 -295h-190z" />
<glyph unicode="&#xb6;" horiz-adv-x="1081" d="M96 760v508l88 88l88 -88v-406zM135 737l166 97h203l166 -97l-166 -82h-203zM211 1384l90 91h381l-178 -177h-203zM535 176v451l176 88v-715zM535 862v406l176 178v-686zM760 0v715l176 -88v-451zM760 760v686l176 -178v-406z" />
<glyph unicode="&#xb7;" horiz-adv-x="264" d="M45 584v317h176v-317h-176z" />
<glyph unicode="&#xb8;" horiz-adv-x="376" d="M80 -201l113 150h186l-111 -150h-188z" />
<glyph unicode="&#xb9;" horiz-adv-x="505" d="M211 1145v225l88 45v-358zM211 1489v217l88 88v-356z" />
<glyph unicode="&#xba;" horiz-adv-x="907" d="M102 1147l7 70q27 129 123 209.5t219 80.5q72 0 145 -30q170 -72 205 -260q6 -35 6 -70q0 -154 -100.5 -255.5t-251.5 -105.5h-35q-25 6 -37 9q-106 23 -179 96.5t-95 183.5zM115 594v111h682v-111h-682zM223 1147q0 -108 55 -167q77 -83 174 -83t165.5 70.5t68.5 184.5 t-74.5 178.5t-141 64.5t-110.5 -21q-137 -63 -137 -227z" />
<glyph unicode="&#xbb;" horiz-adv-x="813" d="M45 0l211 457h188l-204 -457h-195zM47 958h195l204 -452h-190zM371 0l211 457h188l-205 -457h-194zM373 958h194l203 -452h-188z" />
<glyph unicode="&#xbc;" horiz-adv-x="1275" d="M172 0l236 655h122l-235 -655h-123zM211 1145v225l88 45v-358zM211 1489v217l88 88v-356zM485 877l215 598h123l-278 -777zM788 399v357l89 -88v-217zM809 387l82 49h215l82 -49l-82 -41h-215zM1120 106v226l88 45v-359zM1120 451v217l88 88v-357z" />
<glyph unicode="&#xbd;" horiz-adv-x="1153" d="M111 0l235 655h123l-236 -655h-122zM211 1145v225l88 45v-358zM211 1489v217l88 88v-356zM424 877l215 598h123l-279 -777zM653 117v254l88 -45v-209l-45 -45zM653 662l103 88h215l45 -45l-45 -43h-318zM674 381l82 49h215l82 -49l-82 -41h-215zM711 57l45 43h233l84 -88 h-317zM985 444v203l43 43l45 -43v-254z" />
<glyph unicode="&#xbe;" horiz-adv-x="1275" d="M51 1044l84 89h215l45 -43l-45 -46h-299zM51 1782h299l45 -45l-45 -43h-215zM53 1413l82 49h215l82 -49l-82 -41h-215zM213 0l236 655h122l-235 -655h-123zM365 1149v209l88 45v-254l-45 -45zM365 1477v202l43 43l45 -43v-254zM526 877l215 598h123l-278 -777zM788 399 v357l89 -88v-217zM809 387l82 49h215l82 -49l-82 -41h-215zM1120 106v226l88 45v-359zM1120 451v217l88 88v-357z" />
<glyph unicode="&#xbf;" horiz-adv-x="856" d="M88 207v508l176 -103v-405l-88 -88zM129 733l166 86h123l178 -178h-303zM205 90l90 86h428l90 -86l-90 -90h-428zM455 840v219h178v-389zM457 1157v318h176v-318h-176z" />
<glyph unicode="&#xc0;" d="M88 0v715l176 -88v-451zM88 760v686l176 -178v-406zM117 1475h782l-176 -177h-428zM129 737l166 97h428l166 -97l-166 -82h-428zM346 1839h193l133 -295h-193zM752 176v451l176 88v-715zM752 862v406l176 178v-686z" />
<glyph unicode="&#xc1;" d="M88 0v715l176 -88v-451zM88 760v686l176 -178v-406zM117 1475h782l-176 -177h-428zM129 737l166 97h428l166 -97l-166 -82h-428zM342 1544l133 295h193l-136 -295h-190zM752 176v451l176 88v-715zM752 862v406l176 178v-686z" />
<glyph unicode="&#xc2;" d="M88 0v715l176 -88v-451zM88 760v686l176 -178v-406zM109 1581l322 326l49 -205l-127 -121h-244zM117 1475h782l-176 -177h-428zM129 737l166 97h428l166 -97l-166 -82h-428zM525 1702l55 203l332 -324h-260zM752 176v451l176 88v-715zM752 862v406l176 178v-686z" />
<glyph unicode="&#xc3;" d="M88 0v715l176 -88v-451zM88 760v686l176 -178v-406zM117 1475h782l-176 -177h-428zM129 737l166 97h428l166 -97l-166 -82h-428zM180 1649l72 235l118 -221l-20 -63zM297 1907l297 -92l112 -215l-286 88zM631 1843l20 64l172 -47l-74 -236zM752 176v451l176 88v-715z M752 862v406l176 178v-686z" />
<glyph unicode="&#xc4;" d="M88 0v715l176 -88v-451zM88 760v686l176 -178v-406zM117 1475h782l-176 -177h-428zM129 737l166 97h428l166 -97l-166 -82h-428zM246 1573v266h176v-266h-176zM574 1573v266h176v-266h-176zM752 176v451l176 88v-715zM752 862v406l176 178v-686z" />
<glyph unicode="&#xc5;" d="M88 0v715l176 -88v-451zM88 760v686l176 -178v-406zM117 1475h782l-176 -177h-428zM129 737l166 97h428l166 -97l-166 -82h-428zM252 1690v164l80 76l74 -74v-170l-74 -72zM354 1586l90 88h146l88 -88l-62 -58h-200zM354 1952l78 80h170l76 -80l-74 -69h-174zM633 1686 v172l70 74l79 -76v-166l-79 -76zM752 176v451l176 88v-715zM752 862v406l176 178v-686z" />
<glyph unicode="&#xc6;" horiz-adv-x="1622" d="M88 0v717l178 -92v-451zM88 762v684l180 -178v-404zM121 1475h1458l-176 -177h-440l-113 113l-123 -113h-430zM129 739l168 95h430l90 -89l-92 -90h-430zM754 866v406l92 90l86 -90v-408l-86 -90zM756 14v613l90 88l86 -88v-437zM795 0l178 176h432l174 -176h-784z M883 745l86 89h417l164 -95l-170 -84h-417z" />
<glyph unicode="&#xc7;" horiz-adv-x="942" d="M88 207v508l176 -103v-405l-88 -88zM88 760v508l88 88l88 -88v-420zM205 90l90 86h428l176 -176h-604zM205 1384l90 91h604l-176 -177h-428zM313 -201l119 150h189l-119 -150h-189z" />
<glyph unicode="&#xc8;" horiz-adv-x="911" d="M88 29v686l176 -88v-420zM88 760v686l176 -178v-406zM117 0l178 176h428l176 -176h-782zM117 1475h782l-176 -177h-428zM129 737l166 97h428l166 -97l-166 -82h-428zM332 1839h193l133 -295h-193z" />
<glyph unicode="&#xc9;" horiz-adv-x="911" d="M88 29v686l176 -88v-420zM88 760v686l176 -178v-406zM117 0l178 176h428l176 -176h-782zM117 1475h782l-176 -177h-428zM129 737l166 97h428l166 -97l-166 -82h-428zM330 1546l133 295h193l-136 -295h-190z" />
<glyph unicode="&#xca;" horiz-adv-x="911" d="M88 29v686l176 -88v-420zM88 760v686l176 -178v-406zM98 1581l322 326l49 -205l-127 -121h-244zM117 0l178 176h428l176 -176h-782zM117 1475h782l-176 -177h-428zM129 737l166 97h428l166 -97l-166 -82h-428zM514 1702l55 203l332 -324h-260z" />
<glyph unicode="&#xcb;" horiz-adv-x="911" d="M88 29v686l176 -88v-420zM88 760v686l176 -178v-406zM117 0l178 176h428l176 -176h-782zM117 1475h782l-176 -177h-428zM129 737l166 97h428l166 -97l-166 -82h-428zM262 1573v266h176v-266h-176zM590 1573v266h176v-266h-176z" />
<glyph unicode="&#xcc;" horiz-adv-x="348" d="M10 1839h193l133 -295h-193zM88 176v451l176 88v-715zM88 862v436l176 177v-715z" />
<glyph unicode="&#xcd;" horiz-adv-x="348" d="M10 1544l133 295h193l-136 -295h-190zM88 176v451l176 88v-715zM88 862v436l176 177v-715z" />
<glyph unicode="&#xce;" horiz-adv-x="348" d="M-201 1577l322 326l49 -205l-127 -121h-244zM88 176v451l176 88v-715zM88 862v436l176 177v-715zM215 1698l55 203l332 -324h-260z" />
<glyph unicode="&#xcf;" horiz-adv-x="348" d="M-76 1577v266h176v-266h-176zM88 176v451l176 88v-715zM88 862v436l176 177v-715zM252 1577v266h176v-266h-176z" />
<glyph unicode="&#xd0;" horiz-adv-x="1226" d="M-14 649l86 176h200l-86 -176h-200zM313 29v686l176 -88v-420zM313 760v686l176 -178v-406zM342 0l178 176h428l90 -86l-90 -90h-606zM342 1475h606l90 -91l-90 -86h-428zM977 207v420l176 88v-508l-88 -88zM977 862v406l88 88l88 -88v-508z" />
<glyph unicode="&#xd1;" d="M88 0v715l176 -88v-451zM88 760v686l176 -178v-406zM117 1475h782l-176 -177h-428zM193 1637l72 235l118 -221l-20 -63zM310 1895l297 -92l112 -215l-286 88zM644 1831l20 64l172 -47l-74 -236zM752 176v451l176 88v-715zM752 862v406l176 178v-686z" />
<glyph unicode="&#xd2;" d="M88 207v508l176 -88v-420l-88 -88zM88 760v508l88 88l88 -88v-406zM205 90l90 86h428l90 -86l-90 -90h-428zM205 1384l90 91h428l90 -91l-90 -86h-428zM330 1835h193l133 -295h-193zM752 207v420l176 88v-508l-88 -88zM752 862v406l88 88l88 -88v-508z" />
<glyph unicode="&#xd3;" d="M88 207v508l176 -88v-420l-88 -88zM88 760v508l88 88l88 -88v-406zM205 90l90 86h428l90 -86l-90 -90h-428zM205 1384l90 91h428l90 -91l-90 -86h-428zM346 1544l133 295h193l-136 -295h-190zM752 207v420l176 88v-508l-88 -88zM752 862v406l88 88l88 -88v-508z" />
<glyph unicode="&#xd4;" d="M88 207v508l176 -88v-420l-88 -88zM88 760v508l88 88l88 -88v-406zM113 1583l322 326l49 -205l-127 -121h-244zM205 90l90 86h428l90 -86l-90 -90h-428zM205 1384l90 91h428l90 -91l-90 -86h-428zM529 1704l55 203l332 -324h-260zM752 207v420l176 88v-508l-88 -88z M752 862v406l88 88l88 -88v-508z" />
<glyph unicode="&#xd5;" d="M88 207v508l176 -88v-420l-88 -88zM88 760v508l88 88l88 -88v-406zM182 1626l72 235l118 -221l-20 -63zM205 90l90 86h428l90 -86l-90 -90h-428zM205 1384l90 91h428l90 -91l-90 -86h-428zM299 1884l297 -92l112 -215l-286 88zM633 1820l20 64l172 -47l-74 -236zM752 207 v420l176 88v-508l-88 -88zM752 862v406l88 88l88 -88v-508z" />
<glyph unicode="&#xd6;" d="M88 207v508l176 -88v-420l-88 -88zM88 760v508l88 88l88 -88v-406zM205 90l90 86h428l90 -86l-90 -90h-428zM205 1384l90 91h428l90 -91l-90 -86h-428zM252 1575v266h176v-266h-176zM580 1575v266h176v-266h-176zM752 207v420l176 88v-508l-88 -88zM752 862v406l88 88 l88 -88v-508z" />
<glyph unicode="&#xd7;" horiz-adv-x="1015" d="M203 913l67 183l213 -213l4 -123h-131zM205 561l155 156l127 4l-4 -129l-213 -213zM528 592v127l123 -4l156 -154l-68 -182zM532 764v125l213 211l68 -180l-162 -160z" />
<glyph unicode="&#xd8;" horiz-adv-x="1024" d="M88 0v150l766 1325h86v-146l-762 -1329h-90zM90 229v484l180 -84v-90zM90 760v508l88 88l88 -88v-406zM213 1384l88 91h434l45 -54l-69 -123h-410zM250 51l78 125l403 -2l84 -86l-86 -88h-430zM754 207v420l176 88v-508l-88 -88zM760 862v74l180 305v-479z" />
<glyph unicode="&#xd9;" d="M88 207v508l176 -88v-420l-88 -88zM88 760v715l176 -170v-443zM205 90l90 86h428l90 -86l-90 -90h-428zM340 1841h193l133 -295h-193zM752 207v420l176 88v-508l-88 -88zM752 862v443l176 170v-715z" />
<glyph unicode="&#xda;" d="M88 207v508l176 -88v-420l-88 -88zM88 760v715l176 -170v-443zM205 90l90 86h428l90 -86l-90 -90h-428zM352 1544l133 295h193l-136 -295h-190zM752 207v420l176 88v-508l-88 -88zM752 862v443l176 170v-715z" />
<glyph unicode="&#xdb;" d="M88 207v508l176 -88v-420l-88 -88zM88 760v715l176 -170v-443zM102 1575l322 326l49 -205l-127 -121h-244zM205 90l90 86h428l90 -86l-90 -90h-428zM518 1696l55 203l332 -324h-260zM752 207v420l176 88v-508l-88 -88zM752 862v443l176 170v-715z" />
<glyph unicode="&#xdc;" d="M88 207v508l176 -88v-420l-88 -88zM88 760v715l176 -170v-443zM205 90l90 86h428l90 -86l-90 -90h-428zM246 1575v266h176v-266h-176zM574 1575v266h176v-266h-176zM752 207v420l176 88v-508l-88 -88zM752 862v443l176 170v-715z" />
<glyph unicode="&#xdd;" d="M88 760v715l176 -177v-436zM129 737l166 97h428l166 -97l-166 -82h-428zM338 1544l133 295h193l-136 -295h-190zM422 102v514h180v-514l-94 -102zM752 862v436l176 177v-715z" />
<glyph unicode="&#xde;" horiz-adv-x="2048" />
<glyph unicode="&#xe0;" d="M88 0v715l176 -88v-451zM88 760v686l176 -178v-406zM117 1475h782l-176 -177h-428zM129 737l166 97h428l166 -97l-166 -82h-428zM346 1839h193l133 -295h-193zM752 176v451l176 88v-715zM752 862v406l176 178v-686z" />
<glyph unicode="&#xe1;" d="M88 0v715l176 -88v-451zM88 760v686l176 -178v-406zM117 1475h782l-176 -177h-428zM129 737l166 97h428l166 -97l-166 -82h-428zM342 1544l133 295h193l-136 -295h-190zM752 176v451l176 88v-715zM752 862v406l176 178v-686z" />
<glyph unicode="&#xe2;" d="M88 0v715l176 -88v-451zM88 760v686l176 -178v-406zM109 1581l322 326l49 -205l-127 -121h-244zM117 1475h782l-176 -177h-428zM129 737l166 97h428l166 -97l-166 -82h-428zM525 1702l55 203l332 -324h-260zM752 176v451l176 88v-715zM752 862v406l176 178v-686z" />
<glyph unicode="&#xe3;" d="M88 0v715l176 -88v-451zM88 760v686l176 -178v-406zM117 1475h782l-176 -177h-428zM129 737l166 97h428l166 -97l-166 -82h-428zM180 1649l72 235l118 -221l-20 -63zM297 1907l297 -92l112 -215l-286 88zM631 1843l20 64l172 -47l-74 -236zM752 176v451l176 88v-715z M752 862v406l176 178v-686z" />
<glyph unicode="&#xe4;" d="M88 0v715l176 -88v-451zM88 760v686l176 -178v-406zM117 1475h782l-176 -177h-428zM129 737l166 97h428l166 -97l-166 -82h-428zM246 1573v266h176v-266h-176zM574 1573v266h176v-266h-176zM752 176v451l176 88v-715zM752 862v406l176 178v-686z" />
<glyph unicode="&#xe5;" d="M88 0v715l176 -88v-451zM88 760v686l176 -178v-406zM117 1475h782l-176 -177h-428zM129 737l166 97h428l166 -97l-166 -82h-428zM252 1690v164l80 76l74 -74v-170l-74 -72zM354 1586l90 88h146l88 -88l-62 -58h-200zM354 1952l78 80h170l76 -80l-74 -69h-174zM633 1686 v172l70 74l79 -76v-166l-79 -76zM752 176v451l176 88v-715zM752 862v406l176 178v-686z" />
<glyph unicode="&#xe6;" horiz-adv-x="1622" d="M88 0v717l178 -92v-451zM88 762v684l180 -178v-404zM121 1475h1458l-176 -177h-440l-113 113l-123 -113h-430zM129 739l168 95h430l90 -89l-92 -90h-430zM754 866v406l92 90l86 -90v-408l-86 -90zM756 14v613l90 88l86 -88v-437zM795 0l178 176h432l174 -176h-784z M883 745l86 89h417l164 -95l-170 -84h-417z" />
<glyph unicode="&#xe7;" horiz-adv-x="942" d="M88 207v508l176 -103v-405l-88 -88zM88 760v508l88 88l88 -88v-420zM205 90l90 86h428l176 -176h-604zM205 1384l90 91h604l-176 -177h-428zM313 -201l119 150h189l-119 -150h-189z" />
<glyph unicode="&#xe8;" horiz-adv-x="911" d="M88 29v686l176 -88v-420zM88 760v686l176 -178v-406zM117 0l178 176h428l176 -176h-782zM117 1475h782l-176 -177h-428zM129 737l166 97h428l166 -97l-166 -82h-428zM332 1839h193l133 -295h-193z" />
<glyph unicode="&#xe9;" horiz-adv-x="911" d="M88 29v686l176 -88v-420zM88 760v686l176 -178v-406zM117 0l178 176h428l176 -176h-782zM117 1475h782l-176 -177h-428zM129 737l166 97h428l166 -97l-166 -82h-428zM330 1546l133 295h193l-136 -295h-190z" />
<glyph unicode="&#xea;" horiz-adv-x="911" d="M88 29v686l176 -88v-420zM88 760v686l176 -178v-406zM98 1581l322 326l49 -205l-127 -121h-244zM117 0l178 176h428l176 -176h-782zM117 1475h782l-176 -177h-428zM129 737l166 97h428l166 -97l-166 -82h-428zM514 1702l55 203l332 -324h-260z" />
<glyph unicode="&#xeb;" horiz-adv-x="911" d="M88 29v686l176 -88v-420zM88 760v686l176 -178v-406zM117 0l178 176h428l176 -176h-782zM117 1475h782l-176 -177h-428zM129 737l166 97h428l166 -97l-166 -82h-428zM262 1573v266h176v-266h-176zM590 1573v266h176v-266h-176z" />
<glyph unicode="&#xec;" horiz-adv-x="348" d="M10 1839h193l133 -295h-193zM88 176v451l176 88v-715zM88 862v436l176 177v-715z" />
<glyph unicode="&#xed;" horiz-adv-x="348" d="M10 1544l133 295h193l-136 -295h-190zM88 176v451l176 88v-715zM88 862v436l176 177v-715z" />
<glyph unicode="&#xee;" horiz-adv-x="348" d="M-201 1577l322 326l49 -205l-127 -121h-244zM88 176v451l176 88v-715zM88 862v436l176 177v-715zM215 1698l55 203l332 -324h-260z" />
<glyph unicode="&#xef;" horiz-adv-x="348" d="M-76 1577v266h176v-266h-176zM88 176v451l176 88v-715zM88 862v436l176 177v-715zM252 1577v266h176v-266h-176z" />
<glyph unicode="&#xf0;" horiz-adv-x="1226" d="M-14 649l86 176h200l-86 -176h-200zM313 29v686l176 -88v-420zM313 760v686l176 -178v-406zM342 0l178 176h428l90 -86l-90 -90h-606zM342 1475h606l90 -91l-90 -86h-428zM977 207v420l176 88v-508l-88 -88zM977 862v406l88 88l88 -88v-508z" />
<glyph unicode="&#xf1;" d="M88 0v715l176 -88v-451zM88 760v686l176 -178v-406zM117 1475h782l-176 -177h-428zM193 1637l72 235l118 -221l-20 -63zM310 1895l297 -92l112 -215l-286 88zM644 1831l20 64l172 -47l-74 -236zM752 176v451l176 88v-715zM752 862v406l176 178v-686z" />
<glyph unicode="&#xf2;" d="M88 207v508l176 -88v-420l-88 -88zM88 760v508l88 88l88 -88v-406zM205 90l90 86h428l90 -86l-90 -90h-428zM205 1384l90 91h428l90 -91l-90 -86h-428zM330 1835h193l133 -295h-193zM752 207v420l176 88v-508l-88 -88zM752 862v406l88 88l88 -88v-508z" />
<glyph unicode="&#xf3;" d="M88 207v508l176 -88v-420l-88 -88zM88 760v508l88 88l88 -88v-406zM205 90l90 86h428l90 -86l-90 -90h-428zM205 1384l90 91h428l90 -91l-90 -86h-428zM346 1544l133 295h193l-136 -295h-190zM752 207v420l176 88v-508l-88 -88zM752 862v406l88 88l88 -88v-508z" />
<glyph unicode="&#xf4;" d="M88 207v508l176 -88v-420l-88 -88zM88 760v508l88 88l88 -88v-406zM113 1583l322 326l49 -205l-127 -121h-244zM205 90l90 86h428l90 -86l-90 -90h-428zM205 1384l90 91h428l90 -91l-90 -86h-428zM529 1704l55 203l332 -324h-260zM752 207v420l176 88v-508l-88 -88z M752 862v406l88 88l88 -88v-508z" />
<glyph unicode="&#xf5;" d="M88 207v508l176 -88v-420l-88 -88zM88 760v508l88 88l88 -88v-406zM182 1626l72 235l118 -221l-20 -63zM205 90l90 86h428l90 -86l-90 -90h-428zM205 1384l90 91h428l90 -91l-90 -86h-428zM299 1884l297 -92l112 -215l-286 88zM633 1820l20 64l172 -47l-74 -236zM752 207 v420l176 88v-508l-88 -88zM752 862v406l88 88l88 -88v-508z" />
<glyph unicode="&#xf6;" d="M88 207v508l176 -88v-420l-88 -88zM88 760v508l88 88l88 -88v-406zM205 90l90 86h428l90 -86l-90 -90h-428zM205 1384l90 91h428l90 -91l-90 -86h-428zM252 1575v266h176v-266h-176zM580 1575v266h176v-266h-176zM752 207v420l176 88v-508l-88 -88zM752 862v406l88 88 l88 -88v-508z" />
<glyph unicode="&#xf7;" horiz-adv-x="700" d="M45 442l119 176h493l-118 -176h-494zM268 43v317h176v-317h-176zM268 698v303h176v-303h-176z" />
<glyph unicode="&#xf8;" horiz-adv-x="1024" d="M88 0v150l766 1325h86v-146l-762 -1329h-90zM90 229v484l180 -84v-90zM90 760v508l88 88l88 -88v-406zM213 1384l88 91h434l45 -54l-69 -123h-410zM250 51l78 125l403 -2l84 -86l-86 -88h-430zM754 207v420l176 88v-508l-88 -88zM760 862v74l180 305v-479z" />
<glyph unicode="&#xf9;" d="M88 207v508l176 -88v-420l-88 -88zM88 760v715l176 -170v-443zM205 90l90 86h428l90 -86l-90 -90h-428zM340 1841h193l133 -295h-193zM752 207v420l176 88v-508l-88 -88zM752 862v443l176 170v-715z" />
<glyph unicode="&#xfa;" d="M88 207v508l176 -88v-420l-88 -88zM88 760v715l176 -170v-443zM205 90l90 86h428l90 -86l-90 -90h-428zM352 1544l133 295h193l-136 -295h-190zM752 207v420l176 88v-508l-88 -88zM752 862v443l176 170v-715z" />
<glyph unicode="&#xfb;" d="M88 207v508l176 -88v-420l-88 -88zM88 760v715l176 -170v-443zM102 1575l322 326l49 -205l-127 -121h-244zM205 90l90 86h428l90 -86l-90 -90h-428zM518 1696l55 203l332 -324h-260zM752 207v420l176 88v-508l-88 -88zM752 862v443l176 170v-715z" />
<glyph unicode="&#xfc;" d="M88 207v508l176 -88v-420l-88 -88zM88 760v715l176 -170v-443zM205 90l90 86h428l90 -86l-90 -90h-428zM246 1575v266h176v-266h-176zM574 1575v266h176v-266h-176zM752 207v420l176 88v-508l-88 -88zM752 862v443l176 170v-715z" />
<glyph unicode="&#xfd;" d="M88 760v715l176 -177v-436zM129 737l166 97h428l166 -97l-166 -82h-428zM338 1544l133 295h193l-136 -295h-190zM422 102v514h180v-514l-94 -102zM752 862v436l176 177v-715z" />
<glyph unicode="&#xfe;" horiz-adv-x="2048" />
<glyph unicode="&#xff;" d="M88 760v715l176 -177v-436zM129 737l166 97h428l166 -97l-166 -82h-428zM244 1577v266h176v-266h-176zM422 102v514h180v-514l-94 -102zM572 1577v266h176v-266h-176zM752 862v436l176 177v-715z" />
<glyph unicode="&#x152;" horiz-adv-x="1628" d="M88 176v547l180 -94v-453l-90 -80zM88 766v510l90 82l90 -84v-404zM205 74l110 102h408l121 -127l127 127h438l174 -176h-1290zM209 1391l92 84h1284l-178 -177h-449l-106 119l-125 -119h-428zM752 190v443l96 90l82 -92v-443l-84 -88zM754 866v406l92 90l86 -90v-408 l-86 -90zM883 745l86 89h417l164 -95l-170 -84h-417z" />
<glyph unicode="&#x153;" horiz-adv-x="1628" d="M88 176v547l180 -94v-453l-90 -80zM88 766v510l90 82l90 -84v-404zM205 74l110 102h408l121 -127l127 127h438l174 -176h-1290zM209 1391l92 84h1284l-178 -177h-449l-106 119l-125 -119h-428zM752 190v443l96 90l82 -92v-443l-84 -88zM754 866v406l92 90l86 -90v-408 l-86 -90zM883 745l86 89h417l164 -95l-170 -84h-417z" />
<glyph unicode="&#x178;" d="M88 760v715l176 -177v-436zM129 737l166 97h428l166 -97l-166 -82h-428zM244 1577v266h176v-266h-176zM422 102v514h180v-514l-94 -102zM572 1577v266h176v-266h-176zM752 862v436l176 177v-715z" />
<glyph unicode="&#x2c6;" horiz-adv-x="798" d="M0 1495l322 326l49 -205l-127 -121h-244zM416 1616l55 203l332 -324h-260z" />
<glyph unicode="&#x2dc;" horiz-adv-x="641" d="M0 1569l72 235l118 -221l-20 -63zM117 1827l297 -92l112 -215l-286 88zM451 1763l20 64l172 -47l-74 -236z" />
<glyph unicode="&#x2000;" horiz-adv-x="1016" />
<glyph unicode="&#x2001;" horiz-adv-x="2032" />
<glyph unicode="&#x2002;" horiz-adv-x="1016" />
<glyph unicode="&#x2003;" horiz-adv-x="2032" />
<glyph unicode="&#x2004;" horiz-adv-x="677" />
<glyph unicode="&#x2005;" horiz-adv-x="508" />
<glyph unicode="&#x2006;" horiz-adv-x="338" />
<glyph unicode="&#x2007;" horiz-adv-x="338" />
<glyph unicode="&#x2008;" horiz-adv-x="254" />
<glyph unicode="&#x2009;" horiz-adv-x="406" />
<glyph unicode="&#x200a;" horiz-adv-x="112" />
<glyph unicode="&#x2010;" horiz-adv-x="700" d="M45 442l119 176h493l-118 -176h-494z" />
<glyph unicode="&#x2011;" horiz-adv-x="700" d="M45 442l119 176h493l-118 -176h-494z" />
<glyph unicode="&#x2012;" horiz-adv-x="700" d="M45 442l119 176h493l-118 -176h-494z" />
<glyph unicode="&#x2013;" d="M88 649l86 176h754l-86 -176h-754z" />
<glyph unicode="&#x2014;" horiz-adv-x="1812" d="M88 649l86 176h754l-86 -176h-754zM928 649l86 176h753l-86 -176h-753z" />
<glyph unicode="&#x2018;" horiz-adv-x="368" d="M45 967l96 508h183l-97 -508h-182z" />
<glyph unicode="&#x2019;" horiz-adv-x="368" d="M45 967l96 508h183l-97 -508h-182z" />
<glyph unicode="&#x201a;" horiz-adv-x="292" d="M-29 -193l97 510h182l-96 -510h-183z" />
<glyph unicode="&#x201c;" horiz-adv-x="675" d="M45 967l96 508h183l-97 -508h-182zM354 967l97 508h182l-96 -508h-183z" />
<glyph unicode="&#x201d;" horiz-adv-x="675" d="M45 967l96 508h183l-97 -508h-182zM354 967l97 508h182l-96 -508h-183z" />
<glyph unicode="&#x201e;" horiz-adv-x="602" d="M-29 -193l97 510h182l-96 -510h-183zM281 -193l96 510h182l-96 -510h-182z" />
<glyph unicode="&#x2022;" horiz-adv-x="747" d="M102 736.5q0 113.5 80 193.5t194 80t192.5 -79t78.5 -194t-79 -193.5t-193.5 -78.5t-193.5 79t-79 192.5z" />
<glyph unicode="&#x2026;" horiz-adv-x="1169" d="M84 92q0 47 31.5 79t79 32t79 -32t31.5 -79t-31.5 -78.5t-78.5 -31.5t-79 31.5t-32 78.5zM475 92q0 47 32 79t79 32t78.5 -32t31.5 -79t-31.5 -78.5t-78.5 -31.5t-79 31.5t-32 78.5zM866 92q0 47 32 79t78 32t78.5 -31t32.5 -78t-32.5 -79.5t-78.5 -32.5t-78 31.5 t-32 78.5z" />
<glyph unicode="&#x202f;" horiz-adv-x="406" />
<glyph unicode="&#x2039;" horiz-adv-x="491" d="M45 453h191l206 -453h-192zM45 502l207 456h194l-210 -456h-191z" />
<glyph unicode="&#x203a;" horiz-adv-x="491" d="M45 0l211 457h188l-204 -457h-195zM47 958h195l204 -452h-190z" />
<glyph unicode="&#x205f;" horiz-adv-x="508" />
<glyph unicode="&#x2122;" horiz-adv-x="1499" d="M102 1378v97h443v-97h-168v-641h-109v641h-166zM520 737l146 760h43l219 -489l12 -29q18 -48 18 -90q6 57 31 119l221 489h43l146 -760h-109l-82 475q-2 20 -2 32.5t4 37.5l-18 -68l-10 -24l-2 -10l-205 -461h-31l-205 461l-12 34l-18 68q2 -16 2 -70l-82 -475h-109z" />
<glyph unicode="&#xe000;" horiz-adv-x="1475" d="M0 0v1475h1475v-1475h-1475z" />
</font>
</defs>
</svg>
