<svg xmlns="http://www.w3.org/2000/svg" version="1.1" viewBox="0 0 200 200">
	<circle cx="100" cy="100" r="100" fill="white" stroke="black"/>
	<circle cx="100" cy="100" r="80" fill="white" stroke="black"/>
	<circle cx="100" cy="100" r="60" fill="white" stroke="black"/>
	<line x1="100" y1="20" x2="100" y2="40" stroke="#000000"/>
	<line x1="151.9615" y1="70" x2="169.2820" y2="60" stroke="#000000"/>
	<polygon points="100,40 82.6795,50 100,60 117.3205,50" fill="blue" stroke="black"/>
	<polygon points="82.6795,50 65.3590,60 82.6795,70 100,60" fill="green" stroke="black"/>
	<polygon points="65.3590,60 48.0385,70 65.3590,80 82.6795,70" fill="green" stroke="black"/>
	<polygon points="100,60 117.3205,70 134.6410,60 117.3205,50" fill="green" stroke="black"/>
	<polygon points="100,60 117.3205,70 100,80 82.6795,70" fill="blue" stroke="black"/>
	<polygon points="65.3590,80 82.6795,90 100,80 82.6795,70" fill="blue" stroke="black"/>
	<polygon points="134.6410,60 117.3205,70 134.6410,80 151.9615,70" fill="blue" stroke="black"/>
	<polygon points="117.3205,70 100,80 117.3205,90 134.6410,80" fill="green" stroke="black"/>
	<polygon points="100,80 82.6795,90 100,100 117.3205,90" fill="green" stroke="black"/>
<!--	<path d="M100 100 L156.6469 43.19571 A80 80 0 0 1 180 100 Z" fill="#000000" stroke="none"/>-->
</svg>
